<svg width="24" height="24" viewBox="0 0 24 24" fill="none" xmlns="http://www.w3.org/2000/svg">
<path d="M8.25 20.75C8.94036 20.75 9.5 20.1904 9.5 19.5C9.5 18.8096 8.94036 18.25 8.25 18.25C7.55964 18.25 7 18.8096 7 19.5C7 20.1904 7.55964 20.75 8.25 20.75Z" stroke="#03DAC6" stroke-linecap="round" stroke-linejoin="round"/>
<path d="M18.75 20.75C19.4404 20.75 20 20.1904 20 19.5C20 18.8096 19.4404 18.25 18.75 18.25C18.0596 18.25 17.5 18.8096 17.5 19.5C17.5 20.1904 18.0596 20.75 18.75 20.75Z" stroke="#03DAC6" stroke-linecap="round" stroke-linejoin="round"/>
<path d="M2.25 3.75H5.25L7.5 16.5H19.5" stroke="#03DAC6" stroke-width="2" stroke-linecap="round" stroke-linejoin="round"/>
<path d="M7.5 13.5H19.1925C19.2792 13.5001 19.3633 13.4701 19.4304 13.4151C19.4975 13.3601 19.5434 13.2836 19.5605 13.1986L20.9105 6.44859C20.9214 6.39417 20.92 6.338 20.9066 6.28414C20.8931 6.23029 20.8679 6.18009 20.8327 6.13717C20.7975 6.09426 20.7532 6.05969 20.703 6.03597C20.6528 6.01225 20.598 5.99996 20.5425 6H6" stroke="#03DAC6" stroke-width="2" stroke-linecap="round" stroke-linejoin="round"/>
</svg>
