<svg width="104" height="20" viewBox="0 0 104 20" fill="none" xmlns="http://www.w3.org/2000/svg">
<path d="M0.992 2.2H4.88V15.832H13.304V19H0.992V2.2ZM28.1266 6.088V19H24.5746V17.464C24.0786 18.024 23.4866 18.456 22.7986 18.76C22.1106 19.048 21.3666 19.192 20.5666 19.192C18.8706 19.192 17.5266 18.704 16.5346 17.728C15.5426 16.752 15.0466 15.304 15.0466 13.384V6.088H18.7906V12.832C18.7906 14.912 19.6626 15.952 21.4066 15.952C22.3026 15.952 23.0226 15.664 23.5666 15.088C24.1106 14.496 24.3826 13.624 24.3826 12.472V6.088H28.1266ZM31.5952 6.088H35.3392V19H31.5952V6.088ZM33.4672 4.288C32.7792 4.288 32.2192 4.088 31.7872 3.688C31.3552 3.288 31.1392 2.792 31.1392 2.2C31.1392 1.608 31.3552 1.112 31.7872 0.711999C32.2192 0.311999 32.7792 0.111999 33.4672 0.111999C34.1552 0.111999 34.7152 0.303999 35.1472 0.688C35.5792 1.072 35.7952 1.552 35.7952 2.128C35.7952 2.752 35.5792 3.272 35.1472 3.688C34.7152 4.088 34.1552 4.288 33.4672 4.288ZM43.1579 19.192C42.0859 19.192 41.0379 19.064 40.0139 18.808C38.9899 18.536 38.1739 18.2 37.5659 17.8L38.8139 15.112C39.3899 15.48 40.0859 15.784 40.9019 16.024C41.7179 16.248 42.5179 16.36 43.3019 16.36C44.8859 16.36 45.6779 15.968 45.6779 15.184C45.6779 14.816 45.4619 14.552 45.0299 14.392C44.5979 14.232 43.9339 14.096 43.0379 13.984C41.9819 13.824 41.1099 13.64 40.4219 13.432C39.7339 13.224 39.1339 12.856 38.6219 12.328C38.1259 11.8 37.8779 11.048 37.8779 10.072C37.8779 9.256 38.1099 8.536 38.5739 7.912C39.0539 7.272 39.7419 6.776 40.6379 6.424C41.5499 6.072 42.6219 5.896 43.8539 5.896C44.7659 5.896 45.6699 6 46.5659 6.208C47.4779 6.4 48.2299 6.672 48.8219 7.024L47.5739 9.688C46.4379 9.048 45.1979 8.728 43.8539 8.728C43.0539 8.728 42.4539 8.84 42.0539 9.064C41.6539 9.288 41.4539 9.576 41.4539 9.928C41.4539 10.328 41.6699 10.608 42.1019 10.768C42.5339 10.928 43.2219 11.08 44.1659 11.224C45.2219 11.4 46.0859 11.592 46.7579 11.8C47.4299 11.992 48.0139 12.352 48.5099 12.88C49.0059 13.408 49.2539 14.144 49.2539 15.088C49.2539 15.888 49.0139 16.6 48.5339 17.224C48.0539 17.848 47.3499 18.336 46.4219 18.688C45.5099 19.024 44.4219 19.192 43.1579 19.192ZM64.4519 17.464V19H52.5719V2.2H64.0919V3.736H54.3479V9.712H63.0359V11.224H54.3479V17.464H64.4519ZM68.2666 1.192H69.9706V19H68.2666V1.192ZM74.7119 6.376H76.4159V19H74.7119V6.376ZM75.5759 3.616C75.2239 3.616 74.9279 3.496 74.6879 3.256C74.4479 3.016 74.3279 2.728 74.3279 2.392C74.3279 2.072 74.4479 1.792 74.6879 1.552C74.9279 1.312 75.2239 1.192 75.5759 1.192C75.9279 1.192 76.2239 1.312 76.4639 1.552C76.7039 1.776 76.8239 2.048 76.8239 2.368C76.8239 2.72 76.7039 3.016 76.4639 3.256C76.2239 3.496 75.9279 3.616 75.5759 3.616ZM85.5733 6.28C87.2213 6.28 88.4853 6.696 89.3653 7.528C90.2453 8.344 90.6853 9.56 90.6853 11.176V19H89.0533V17.032C88.6693 17.688 88.1013 18.2 87.3493 18.568C86.6133 18.936 85.7333 19.12 84.7093 19.12C83.3013 19.12 82.1813 18.784 81.3493 18.112C80.5173 17.44 80.1013 16.552 80.1013 15.448C80.1013 14.376 80.4853 13.512 81.2533 12.856C82.0373 12.2 83.2773 11.872 84.9733 11.872H88.9813V11.104C88.9813 10.016 88.6773 9.192 88.0693 8.632C87.4613 8.056 86.5733 7.768 85.4053 7.768C84.6053 7.768 83.8373 7.904 83.1013 8.176C82.3653 8.432 81.7333 8.792 81.2053 9.256L80.4373 7.984C81.0773 7.44 81.8453 7.024 82.7413 6.736C83.6373 6.432 84.5813 6.28 85.5733 6.28ZM84.9733 17.776C85.9333 17.776 86.7573 17.56 87.4453 17.128C88.1333 16.68 88.6453 16.04 88.9813 15.208V13.144H85.0213C82.8613 13.144 81.7812 13.896 81.7812 15.4C81.7812 16.136 82.0613 16.72 82.6213 17.152C83.1813 17.568 83.9653 17.776 84.9733 17.776ZM98.6975 19.12C97.6735 19.12 96.6895 18.976 95.7455 18.688C94.8175 18.384 94.0895 18.008 93.5615 17.56L94.3295 16.216C94.8575 16.632 95.5215 16.976 96.3215 17.248C97.1215 17.504 97.9535 17.632 98.8175 17.632C99.9695 17.632 100.818 17.456 101.362 17.104C101.922 16.736 102.202 16.224 102.202 15.568C102.202 15.104 102.05 14.744 101.746 14.488C101.442 14.216 101.058 14.016 100.594 13.888C100.13 13.744 99.5135 13.608 98.7455 13.48C97.7215 13.288 96.8975 13.096 96.2735 12.904C95.6495 12.696 95.1135 12.352 94.6655 11.872C94.2335 11.392 94.0175 10.728 94.0175 9.88C94.0175 8.824 94.4575 7.96 95.3375 7.288C96.2175 6.616 97.4415 6.28 99.0095 6.28C99.8255 6.28 100.642 6.392 101.458 6.616C102.274 6.824 102.946 7.104 103.474 7.456L102.73 8.824C101.69 8.104 100.45 7.744 99.0095 7.744C97.9215 7.744 97.0975 7.936 96.5375 8.32C95.9935 8.704 95.7215 9.208 95.7215 9.832C95.7215 10.312 95.8735 10.696 96.1775 10.984C96.4975 11.272 96.8895 11.488 97.3535 11.632C97.8175 11.76 98.4575 11.896 99.2735 12.04C100.282 12.232 101.09 12.424 101.698 12.616C102.306 12.808 102.826 13.136 103.258 13.6C103.69 14.064 103.906 14.704 103.906 15.52C103.906 16.624 103.442 17.504 102.514 18.16C101.602 18.8 100.33 19.12 98.6975 19.12Z" fill="white"/>
</svg>
